<svg id="visual" viewBox="0 0 900 600" width="900" height="600" xmlns="http://www.w3.org/2000/svg" xmlns:xlink="http://www.w3.org/1999/xlink" version="1.1"><rect x="0" y="0" width="900" height="600" fill="#1F51FF"></rect><defs><linearGradient id="grad1_0" x1="33.3%" y1="0%" x2="100%" y2="100%"><stop offset="20%" stop-color="#34f70f" stop-opacity="1"></stop><stop offset="80%" stop-color="#34f70f" stop-opacity="1"></stop></linearGradient></defs><defs><linearGradient id="grad1_1" x1="33.3%" y1="0%" x2="100%" y2="100%"><stop offset="20%" stop-color="#34f70f" stop-opacity="1"></stop><stop offset="80%" stop-color="#00e2a7" stop-opacity="1"></stop></linearGradient></defs><defs><linearGradient id="grad1_2" x1="33.3%" y1="0%" x2="100%" y2="100%"><stop offset="20%" stop-color="#00c3ff" stop-opacity="1"></stop><stop offset="80%" stop-color="#00e2a7" stop-opacity="1"></stop></linearGradient></defs><defs><linearGradient id="grad1_3" x1="33.3%" y1="0%" x2="100%" y2="100%"><stop offset="20%" stop-color="#00c3ff" stop-opacity="1"></stop><stop offset="80%" stop-color="#0098ff" stop-opacity="1"></stop></linearGradient></defs><defs><linearGradient id="grad1_4" x1="33.3%" y1="0%" x2="100%" y2="100%"><stop offset="20%" stop-color="#1f51ff" stop-opacity="1"></stop><stop offset="80%" stop-color="#0098ff" stop-opacity="1"></stop></linearGradient></defs><defs><linearGradient id="grad2_0" x1="0%" y1="0%" x2="66.7%" y2="100%"><stop offset="20%" stop-color="#34f70f" stop-opacity="1"></stop><stop offset="80%" stop-color="#34f70f" stop-opacity="1"></stop></linearGradient></defs><defs><linearGradient id="grad2_1" x1="0%" y1="0%" x2="66.7%" y2="100%"><stop offset="20%" stop-color="#00e2a7" stop-opacity="1"></stop><stop offset="80%" stop-color="#34f70f" stop-opacity="1"></stop></linearGradient></defs><defs><linearGradient id="grad2_2" x1="0%" y1="0%" x2="66.7%" y2="100%"><stop offset="20%" stop-color="#00e2a7" stop-opacity="1"></stop><stop offset="80%" stop-color="#00c3ff" stop-opacity="1"></stop></linearGradient></defs><defs><linearGradient id="grad2_3" x1="0%" y1="0%" x2="66.7%" y2="100%"><stop offset="20%" stop-color="#0098ff" stop-opacity="1"></stop><stop offset="80%" stop-color="#00c3ff" stop-opacity="1"></stop></linearGradient></defs><defs><linearGradient id="grad2_4" x1="0%" y1="0%" x2="66.7%" y2="100%"><stop offset="20%" stop-color="#0098ff" stop-opacity="1"></stop><stop offset="80%" stop-color="#1f51ff" stop-opacity="1"></stop></linearGradient></defs><g transform="translate(900, 0)"><path d="M0 351.5C-26.1 333.7 -52.1 315.9 -83.6 312C-115.1 308.1 -151.9 318 -175.8 304.4C-199.6 290.8 -210.4 253.7 -227 227C-243.5 200.3 -265.9 184.1 -280.6 162C-295.3 139.9 -302.4 111.8 -313 83.9C-323.5 55.9 -337.5 27.9 -351.5 0L0 0Z" fill="#007aff"></path><path d="M0 281.2C-20.9 267 -41.7 252.7 -66.9 249.6C-92.1 246.5 -121.5 254.4 -140.6 243.6C-159.7 232.7 -168.3 202.9 -181.6 181.6C-194.8 160.2 -212.7 147.3 -224.5 129.6C-236.2 111.9 -241.9 89.5 -250.4 67.1C-258.8 44.7 -270 22.3 -281.2 0L0 0Z" fill="#00afff"></path><path d="M0 210.9C-15.6 200.2 -31.3 189.5 -50.2 187.2C-69 184.8 -91.2 190.8 -105.5 182.7C-119.8 174.5 -126.2 152.2 -136.2 136.2C-146.1 120.2 -159.5 110.5 -168.4 97.2C-177.2 83.9 -181.4 67.1 -187.8 50.3C-194.1 33.5 -202.5 16.8 -210.9 0L0 0Z" fill="#00d3e0"></path><path d="M0 140.6C-10.4 133.5 -20.9 126.4 -33.4 124.8C-46 123.2 -60.8 127.2 -70.3 121.8C-79.8 116.3 -84.2 101.5 -90.8 90.8C-97.4 80.1 -106.4 73.6 -112.2 64.8C-118.1 56 -121 44.7 -125.2 33.5C-129.4 22.3 -135 11.2 -140.6 0L0 0Z" fill="#00ee69"></path><path d="M0 70.3C-5.2 66.7 -10.4 63.2 -16.7 62.4C-23 61.6 -30.4 63.6 -35.2 60.9C-39.9 58.2 -42.1 50.7 -45.4 45.4C-48.7 40.1 -53.2 36.8 -56.1 32.4C-59.1 28 -60.5 22.4 -62.6 16.8C-64.7 11.2 -67.5 5.6 -70.3 0L0 0Z" fill="#34f70f"></path></g><g transform="translate(0, 600)"><path d="M0 -351.5C26.5 -334.2 52.9 -316.9 83.6 -312C114.3 -307.1 149.2 -314.5 174 -301.4C198.8 -288.3 213.6 -254.7 227.7 -227.7C241.8 -200.7 255.3 -180.3 276.3 -159.5C297.3 -138.7 325.8 -117.6 339.6 -91C353.4 -64.3 352.5 -32.2 351.5 0L0 0Z" fill="#007aff"></path><path d="M0 -281.2C21.2 -267.4 42.3 -253.5 66.9 -249.6C91.4 -245.6 119.3 -251.6 139.2 -241.1C159.1 -230.6 170.9 -203.8 182.2 -182.2C193.4 -160.5 204.2 -144.2 221 -127.6C237.8 -111 260.6 -94.1 271.7 -72.8C282.7 -51.5 282 -25.7 281.2 0L0 0Z" fill="#00afff"></path><path d="M0 -210.9C15.9 -200.5 31.8 -190.2 50.2 -187.2C68.6 -184.2 89.5 -188.7 104.4 -180.8C119.3 -173 128.1 -152.8 136.6 -136.6C145.1 -120.4 153.2 -108.2 165.8 -95.7C178.4 -83.2 195.5 -70.6 203.7 -54.6C212 -38.6 211.5 -19.3 210.9 0L0 0Z" fill="#00d3e0"></path><path d="M0 -140.6C10.6 -133.7 21.2 -126.8 33.4 -124.8C45.7 -122.8 59.7 -125.8 69.6 -120.6C79.5 -115.3 85.4 -101.9 91.1 -91.1C96.7 -80.3 102.1 -72.1 110.5 -63.8C118.9 -55.5 130.3 -47.1 135.8 -36.4C141.3 -25.7 141 -12.9 140.6 0L0 0Z" fill="#00ee69"></path><path d="M0 -70.3C5.3 -66.8 10.6 -63.4 16.7 -62.4C22.9 -61.4 29.8 -62.9 34.8 -60.3C39.8 -57.7 42.7 -50.9 45.5 -45.5C48.4 -40.1 51.1 -36.1 55.3 -31.9C59.5 -27.7 65.2 -23.5 67.9 -18.2C70.7 -12.9 70.5 -6.4 70.3 0L0 0Z" fill="#34f70f"></path></g></svg>